<?xml version="1.0" standalone="no"?>
<!DOCTYPE svg PUBLIC "-//W3C//DTD SVG 20010904//EN"
 "http://www.w3.org/TR/2001/REC-SVG-20010904/DTD/svg10.dtd">
<svg version="1.0" xmlns="http://www.w3.org/2000/svg"
 width="184.000000pt" height="184.000000pt" viewBox="0 0 184.000000 184.000000"
 preserveAspectRatio="xMidYMid meet">
<metadata>
Created by potrace 1.11, written by Peter Selinger 2001-2013
</metadata>
<g transform="translate(0.000000,184.000000) scale(0.100000,-0.100000)"
fill="#000000" stroke="none">
<path d="M0 920 l0 -920 138 0 137 1 72 112 c39 62 88 130 109 152 47 51 56
83 39 132 -8 21 -14 46 -15 56 0 9 -4 17 -8 17 -14 0 -54 80 -48 95 3 9 0 15
-8 15 -16 0 -67 91 -64 116 5 63 -3 83 -57 141 -59 63 -69 98 -39 141 22 32
80 29 161 -8 35 -16 70 -30 76 -30 7 1 -2 7 -20 15 -53 23 -143 96 -174 142
-40 57 -45 98 -21 146 15 27 16 37 7 37 -8 0 -16 -8 -18 -17 -3 -11 -5 -6 -6
11 -1 22 15 47 71 110 141 158 192 211 209 218 9 3 82 8 162 10 80 2 143 6
141 9 -6 10 45 29 80 29 36 0 93 -36 164 -104 77 -72 152 -203 172 -298 6 -32
16 -58 21 -58 5 0 9 -7 9 -15 0 -8 9 -15 20 -15 19 0 47 -36 36 -48 -3 -3 -6
0 -6 7 0 7 -5 9 -11 5 -8 -4 -2 -12 15 -21 22 -11 24 -17 16 -33 -5 -10 -21
-27 -35 -38 -31 -24 -31 -25 0 -78 l25 -43 36 34 c33 32 35 36 29 79 -9 57 16
102 73 134 79 44 111 23 92 -59 -8 -31 -10 -78 -7 -118 7 -75 -10 -152 -80
-349 -17 -49 -107 -147 -124 -136 -7 4 -9 3 -6 -3 7 -11 -77 -97 -88 -92 -7 4
-75 -186 -123 -339 l-19 -62 353 0 354 0 0 920 0 920 -920 0 -920 0 0 -920z
m420 587 c0 -2 -12 -14 -27 -28 l-28 -24 24 28 c23 25 31 32 31 24z m-60 -67
c0 -5 -5 -10 -11 -10 -5 0 -7 5 -4 10 3 6 8 10 11 10 2 0 4 -4 4 -10z m-43
-42 c-3 -8 -6 -5 -6 6 -1 11 2 17 5 13 3 -3 4 -12 1 -19z"/>
<path d="M840 1575 c0 -4 7 -19 15 -35 l15 -29 -54 6 c-47 5 -61 2 -100 -21
-25 -15 -46 -29 -46 -32 0 -3 12 -15 27 -28 l27 -23 23 34 c13 19 23 38 23 43
0 16 30 11 74 -12 74 -41 109 -103 119 -212 7 -73 19 -98 38 -79 7 7 6 26 -5
64 -9 29 -16 65 -16 80 0 15 -11 49 -25 75 -14 26 -25 52 -25 58 0 6 -14 24
-30 39 -17 16 -33 40 -36 53 -5 20 -24 35 -24 19z"/>
<path d="M440 1388 c0 -27 6 -41 22 -52 21 -15 21 -17 6 -32 -15 -16 -18 -16
-33 0 -24 23 -28 15 -10 -20 20 -42 71 -88 89 -81 18 7 64 -13 71 -31 3 -8 0
-10 -8 -6 -8 5 -7 2 2 -9 7 -9 20 -17 27 -17 8 0 14 -4 14 -8 0 -11 60 -45 67
-38 3 3 -16 30 -43 60 -112 125 -159 184 -180 226 l-23 45 -1 -37z"/>
<path d="M1310 451 c-19 -16 -32 -32 -29 -35 3 -3 21 10 39 29 41 43 36 45
-10 6z"/>
</g>
</svg>
